<mxfile host="65bd71144e">
    <diagram id="prtHgNgQTEPvFCAcTncT" name="Page-1">
        <mxGraphModel dx="582" dy="664" grid="1" gridSize="10" guides="1" tooltips="1" connect="1" arrows="1" fold="1" page="1" pageScale="1" pageWidth="827" pageHeight="1169" math="0" shadow="0">
            <root>
                <mxCell id="0"/>
                <mxCell id="1" parent="0"/>
                <mxCell id="dNxyNK7c78bLwvsdeMH5-11" value="x" style="swimlane;html=1;startSize=20;horizontal=1;containerType=tree;glass=0;" parent="1" vertex="1">
                    <mxGeometry x="40" y="80" width="710" height="120" as="geometry"/>
                </mxCell>
                <UserObject label="%name%&lt;br&gt;&lt;i style=&quot;color: gray&quot;&gt;%position%&lt;/i&gt;&lt;br&gt;&lt;a href=&quot;mailto:%email%&quot;&gt;Email&lt;/a&gt;" name="Nun Offit" position="Orphan Tamer" location="Office 1" email="me@example.com" placeholders="1" link="https://www.draw.io" id="dNxyNK7c78bLwvsdeMH5-12">
                    <mxCell style="label;image=https://cdn3.iconfinder.com/data/icons/user-avatars-1/512/users-3-128.png;whiteSpace=wrap;html=1;rounded=0;glass=0;treeMoving=1;treeFolding=1;" parent="dNxyNK7c78bLwvsdeMH5-11" vertex="1">
                        <mxGeometry x="120" y="30" width="180" height="70" as="geometry"/>
                    </mxCell>
                </UserObject>
                <mxCell id="dNxyNK7c78bLwvsdeMH5-13" value="" style="endArrow=blockThin;endFill=1;fontSize=11;edgeStyle=elbowEdgeStyle;elbow=vertical;rounded=0;" parent="dNxyNK7c78bLwvsdeMH5-11" source="dNxyNK7c78bLwvsdeMH5-12" target="dNxyNK7c78bLwvsdeMH5-14" edge="1">
                    <mxGeometry relative="1" as="geometry"/>
                </mxCell>
                <UserObject label="Albie&lt;br&gt;&lt;i style=&quot;color: gray&quot;&gt;Fatkid in an Innertube&lt;/i&gt;&lt;br&gt;Email" name="Priest Peter Phillips" position="Orphan Tamer" location="Office 2" placeholders="1" id="dNxyNK7c78bLwvsdeMH5-14">
                    <mxCell style="label;image=https://cdn3.iconfinder.com/data/icons/user-avatars-1/512/users-10-3-128.png;whiteSpace=wrap;html=1;rounded=0;glass=0;treeFolding=1;treeMoving=1;" parent="dNxyNK7c78bLwvsdeMH5-11" vertex="1">
                        <mxGeometry x="400" y="30" width="200" height="80" as="geometry"/>
                    </mxCell>
                </UserObject>
                <mxCell id="9H34w2Jh71Ep6UbLUVoz-1" value="&lt;div&gt;Albie&lt;/div&gt;Fat Kid in an Innertube&lt;div&gt;Type: Innocence&lt;/div&gt;" style="rounded=1;whiteSpace=wrap;html=1;" parent="1" vertex="1">
                    <mxGeometry x="110" y="290" width="150" height="60" as="geometry"/>
                </mxCell>
                <mxCell id="9H34w2Jh71Ep6UbLUVoz-2" value="&lt;div&gt;Sootie&lt;/div&gt;Raggamuffin&lt;br&gt;&lt;div&gt;Type: Ash Orphan&lt;/div&gt;" style="rounded=1;whiteSpace=wrap;html=1;" parent="1" vertex="1">
                    <mxGeometry x="320" y="290" width="150" height="60" as="geometry"/>
                </mxCell>
                <mxCell id="9H34w2Jh71Ep6UbLUVoz-3" value="&lt;div&gt;Moppet&lt;/div&gt;Shivering Ailment&lt;br&gt;&lt;div&gt;Type: Anxious&lt;/div&gt;" style="rounded=1;whiteSpace=wrap;html=1;" parent="1" vertex="1">
                    <mxGeometry x="560" y="290" width="150" height="60" as="geometry"/>
                </mxCell>
                <mxCell id="c4BANhSZFIQ7KN4WRA-t-1" value="Orphodex&lt;div&gt;&lt;br&gt;&lt;/div&gt;&lt;div&gt;Using react fundamentals course to make&lt;/div&gt;&lt;div&gt;pokedex for orphans where I will. be able to keep my daily orphan drawings&lt;/div&gt;" style="rounded=0;whiteSpace=wrap;html=1;" parent="1" vertex="1">
                    <mxGeometry x="70" y="410" width="130" height="170" as="geometry"/>
                </mxCell>
                <mxCell id="lMN6it-LYemtHTq4qIZc-1" value="8 Gyms&lt;div&gt;Are churches following other religions. Once youj defeat the cult leader your cross or effiigy is raised on top of church like mario flag when clearing a level&lt;/div&gt;" style="rounded=0;whiteSpace=wrap;html=1;" parent="1" vertex="1">
                    <mxGeometry x="240" y="420" width="130" height="170" as="geometry"/>
                </mxCell>
                <mxCell id="lMN6it-LYemtHTq4qIZc-2" value="&lt;div&gt;8 Types&lt;/div&gt;&lt;div&gt;Each gym has type and a biome.&lt;/div&gt;&lt;div&gt;&lt;br&gt;&lt;/div&gt;&lt;div&gt;Top of screen London has steam Orphans.&lt;/div&gt;&lt;div&gt;They&#39;re god is commerce.&lt;/div&gt;&lt;div&gt;&lt;br&gt;&lt;/div&gt;&lt;div&gt;Volcano Biome&lt;br&gt;Has Ash and Fire types. Their God is Ancient Balrog.&lt;/div&gt;&lt;div&gt;&lt;br&gt;&lt;/div&gt;&lt;div&gt;Teal Area&lt;/div&gt;&lt;div&gt;Twighlight Type. Focus on sleep&lt;/div&gt;&lt;div&gt;&lt;br&gt;&lt;/div&gt;&lt;div&gt;French War&lt;br&gt;Napoleonic area war torn.&lt;br&gt;God of War&lt;/div&gt;&lt;div&gt;&lt;br&gt;&lt;/div&gt;&lt;div&gt;Snow Area&lt;br&gt;&lt;br&gt;&lt;br&gt;Myst Area&lt;br&gt;&lt;br&gt;&lt;/div&gt;&lt;div&gt;&lt;br&gt;&lt;/div&gt;&lt;div&gt;Hell ARea&lt;/div&gt;&lt;div&gt;&lt;br&gt;&lt;/div&gt;&lt;div&gt;&lt;br&gt;&lt;/div&gt;&lt;div&gt;Heaven Area&lt;/div&gt;" style="rounded=0;whiteSpace=wrap;html=1;" parent="1" vertex="1">
                    <mxGeometry x="680" y="380" width="130" height="520" as="geometry"/>
                </mxCell>
                <mxCell id="1dcjqhPWXCqPS0pfsLZp-1" value="BP State Machine" style="rounded=0;whiteSpace=wrap;html=1;" parent="1" vertex="1">
                    <mxGeometry x="140" y="1160" width="120" height="100" as="geometry"/>
                </mxCell>
                <mxCell id="1dcjqhPWXCqPS0pfsLZp-2" value="Intro" style="rounded=0;whiteSpace=wrap;html=1;" parent="1" vertex="1">
                    <mxGeometry x="140" y="1300" width="120" height="60" as="geometry"/>
                </mxCell>
                <mxCell id="1dcjqhPWXCqPS0pfsLZp-5" value="" style="endArrow=classic;html=1;rounded=0;exitX=0.5;exitY=1;exitDx=0;exitDy=0;entryX=0.5;entryY=0;entryDx=0;entryDy=0;" parent="1" source="1dcjqhPWXCqPS0pfsLZp-2" edge="1">
                    <mxGeometry width="50" height="50" relative="1" as="geometry">
                        <mxPoint x="390" y="1340" as="sourcePoint"/>
                        <mxPoint x="200" y="1390" as="targetPoint"/>
                    </mxGeometry>
                </mxCell>
                <mxCell id="1dcjqhPWXCqPS0pfsLZp-6" value="Pre Battle Info" style="rounded=0;whiteSpace=wrap;html=1;" parent="1" vertex="1">
                    <mxGeometry x="140" y="1392" width="120" height="58" as="geometry"/>
                </mxCell>
                <mxCell id="1dcjqhPWXCqPS0pfsLZp-7" value="" style="endArrow=classic;html=1;rounded=0;exitX=0.5;exitY=1;exitDx=0;exitDy=0;entryX=0.5;entryY=0;entryDx=0;entryDy=0;" parent="1" source="1dcjqhPWXCqPS0pfsLZp-6" edge="1">
                    <mxGeometry width="50" height="50" relative="1" as="geometry">
                        <mxPoint x="390" y="1432" as="sourcePoint"/>
                        <mxPoint x="200" y="1482" as="targetPoint"/>
                    </mxGeometry>
                </mxCell>
                <mxCell id="1dcjqhPWXCqPS0pfsLZp-8" value="Bring Out Enemy" style="rounded=0;whiteSpace=wrap;html=1;" parent="1" vertex="1">
                    <mxGeometry x="140" y="1482" width="120" height="60" as="geometry"/>
                </mxCell>
                <mxCell id="1dcjqhPWXCqPS0pfsLZp-9" value="" style="endArrow=classic;html=1;rounded=0;exitX=0.5;exitY=1;exitDx=0;exitDy=0;entryX=0.5;entryY=0;entryDx=0;entryDy=0;" parent="1" source="1dcjqhPWXCqPS0pfsLZp-8" edge="1">
                    <mxGeometry width="50" height="50" relative="1" as="geometry">
                        <mxPoint x="390" y="1522" as="sourcePoint"/>
                        <mxPoint x="200" y="1572" as="targetPoint"/>
                    </mxGeometry>
                </mxCell>
                <mxCell id="1dcjqhPWXCqPS0pfsLZp-10" value="Player Input&lt;br&gt;(pause)" style="rounded=0;whiteSpace=wrap;html=1;" parent="1" vertex="1">
                    <mxGeometry x="140" y="1570" width="120" height="60" as="geometry"/>
                </mxCell>
                <mxCell id="1dcjqhPWXCqPS0pfsLZp-11" value="" style="endArrow=classic;html=1;rounded=0;exitX=0.5;exitY=1;exitDx=0;exitDy=0;entryX=0.5;entryY=0;entryDx=0;entryDy=0;" parent="1" source="1dcjqhPWXCqPS0pfsLZp-10" edge="1">
                    <mxGeometry width="50" height="50" relative="1" as="geometry">
                        <mxPoint x="390" y="1610" as="sourcePoint"/>
                        <mxPoint x="200" y="1660" as="targetPoint"/>
                    </mxGeometry>
                </mxCell>
                <mxCell id="1dcjqhPWXCqPS0pfsLZp-12" value="Enemy Input" style="rounded=0;whiteSpace=wrap;html=1;" parent="1" vertex="1">
                    <mxGeometry x="140" y="1662" width="120" height="60" as="geometry"/>
                </mxCell>
                <mxCell id="1dcjqhPWXCqPS0pfsLZp-13" value="" style="endArrow=classic;html=1;rounded=0;exitX=0.5;exitY=1;exitDx=0;exitDy=0;entryX=0.5;entryY=0;entryDx=0;entryDy=0;" parent="1" source="1dcjqhPWXCqPS0pfsLZp-12" edge="1">
                    <mxGeometry width="50" height="50" relative="1" as="geometry">
                        <mxPoint x="390" y="1702" as="sourcePoint"/>
                        <mxPoint x="200" y="1752" as="targetPoint"/>
                    </mxGeometry>
                </mxCell>
                <mxCell id="1dcjqhPWXCqPS0pfsLZp-14" value="Battle" style="rounded=0;whiteSpace=wrap;html=1;" parent="1" vertex="1">
                    <mxGeometry x="140" y="1752" width="120" height="60" as="geometry"/>
                </mxCell>
                <mxCell id="1dcjqhPWXCqPS0pfsLZp-15" value="" style="endArrow=classic;html=1;rounded=0;exitX=0.5;exitY=1;exitDx=0;exitDy=0;entryX=0.5;entryY=0;entryDx=0;entryDy=0;" parent="1" source="1dcjqhPWXCqPS0pfsLZp-14" edge="1">
                    <mxGeometry width="50" height="50" relative="1" as="geometry">
                        <mxPoint x="390" y="1792" as="sourcePoint"/>
                        <mxPoint x="200" y="1842" as="targetPoint"/>
                    </mxGeometry>
                </mxCell>
                <mxCell id="1dcjqhPWXCqPS0pfsLZp-16" value="" style="endArrow=classic;html=1;rounded=0;entryX=1;entryY=0.5;entryDx=0;entryDy=0;exitX=1;exitY=0.5;exitDx=0;exitDy=0;" parent="1" source="1dcjqhPWXCqPS0pfsLZp-18" target="1dcjqhPWXCqPS0pfsLZp-10" edge="1">
                    <mxGeometry width="50" height="50" relative="1" as="geometry">
                        <mxPoint x="320" y="1880" as="sourcePoint"/>
                        <mxPoint x="440" y="1540" as="targetPoint"/>
                        <Array as="points">
                            <mxPoint x="320" y="1870"/>
                            <mxPoint x="320" y="1600"/>
                        </Array>
                    </mxGeometry>
                </mxCell>
                <mxCell id="1dcjqhPWXCqPS0pfsLZp-17" value="" style="endArrow=classic;html=1;rounded=0;exitX=0;exitY=0.5;exitDx=0;exitDy=0;entryX=0;entryY=0.5;entryDx=0;entryDy=0;" parent="1" source="1dcjqhPWXCqPS0pfsLZp-10" target="1dcjqhPWXCqPS0pfsLZp-23" edge="1">
                    <mxGeometry width="50" height="50" relative="1" as="geometry">
                        <mxPoint x="390" y="1580" as="sourcePoint"/>
                        <mxPoint x="90" y="2080" as="targetPoint"/>
                        <Array as="points">
                            <mxPoint x="100" y="1600"/>
                            <mxPoint x="100" y="2050"/>
                        </Array>
                    </mxGeometry>
                </mxCell>
                <mxCell id="1dcjqhPWXCqPS0pfsLZp-18" value="Post Attack Check" style="rounded=0;whiteSpace=wrap;html=1;" parent="1" vertex="1">
                    <mxGeometry x="140" y="1840" width="120" height="60" as="geometry"/>
                </mxCell>
                <mxCell id="1dcjqhPWXCqPS0pfsLZp-19" value="" style="endArrow=classic;html=1;rounded=0;exitX=0.5;exitY=1;exitDx=0;exitDy=0;entryX=0.5;entryY=0;entryDx=0;entryDy=0;" parent="1" source="1dcjqhPWXCqPS0pfsLZp-18" edge="1">
                    <mxGeometry width="50" height="50" relative="1" as="geometry">
                        <mxPoint x="390" y="1880" as="sourcePoint"/>
                        <mxPoint x="200" y="1930" as="targetPoint"/>
                    </mxGeometry>
                </mxCell>
                <mxCell id="1dcjqhPWXCqPS0pfsLZp-20" value="Finished" style="rounded=0;whiteSpace=wrap;html=1;" parent="1" vertex="1">
                    <mxGeometry x="140" y="1930" width="120" height="60" as="geometry"/>
                </mxCell>
                <mxCell id="1dcjqhPWXCqPS0pfsLZp-23" value="Finished" style="rounded=0;whiteSpace=wrap;html=1;" parent="1" vertex="1">
                    <mxGeometry x="140" y="2020" width="120" height="60" as="geometry"/>
                </mxCell>
                <mxCell id="1dcjqhPWXCqPS0pfsLZp-26" value="" style="edgeStyle=orthogonalEdgeStyle;rounded=0;orthogonalLoop=1;jettySize=auto;html=1;" parent="1" edge="1">
                    <mxGeometry relative="1" as="geometry">
                        <mxPoint x="200" y="2020" as="sourcePoint"/>
                        <mxPoint x="200" y="1990" as="targetPoint"/>
                        <Array as="points">
                            <mxPoint x="200" y="2010"/>
                            <mxPoint x="200" y="2010"/>
                        </Array>
                    </mxGeometry>
                </mxCell>
                <mxCell id="1dcjqhPWXCqPS0pfsLZp-27" value="BLUE NUN&lt;div&gt;grows old and haggared by tvolcanoe&lt;/div&gt;&lt;div&gt;&lt;br&gt;&lt;/div&gt;&lt;div&gt;3 drawings&lt;/div&gt;&lt;div&gt;yopung buyeatiful&lt;/div&gt;&lt;div&gt;transuition&lt;/div&gt;&lt;div&gt;hagard old&lt;/div&gt;" style="rounded=0;whiteSpace=wrap;html=1;" parent="1" vertex="1">
                    <mxGeometry x="390" y="690" width="120" height="160" as="geometry"/>
                </mxCell>
                <mxCell id="145" style="edgeStyle=none;html=1;exitX=1;exitY=0;exitDx=0;exitDy=0;" parent="1" source="1dcjqhPWXCqPS0pfsLZp-28" target="144" edge="1">
                    <mxGeometry relative="1" as="geometry"/>
                </mxCell>
                <mxCell id="1dcjqhPWXCqPS0pfsLZp-28" value="Thom Ba-bombdadil" style="rounded=0;whiteSpace=wrap;html=1;" parent="1" vertex="1">
                    <mxGeometry x="70" y="690" width="200" height="80" as="geometry"/>
                </mxCell>
                <mxCell id="EJm_T1MfFVbmYTKbSGmN-1" value="Champion Forest&lt;div&gt;&lt;br&gt;&lt;/div&gt;&lt;div&gt;turns out to be&lt;/div&gt;&lt;div&gt;Champignon Forest&lt;/div&gt;&lt;div&gt;(Mushroom)&lt;/div&gt;&lt;div&gt;as the nun explains&lt;/div&gt;&lt;div&gt;when they get there&lt;/div&gt;" style="rounded=0;whiteSpace=wrap;html=1;" parent="1" vertex="1">
                    <mxGeometry x="440" y="400" width="120" height="185" as="geometry"/>
                </mxCell>
                <mxCell id="NaM-DlOi4ERBnAFPFXcm-1" value="Talking Tabby Cat appears throughout gane&lt;div&gt;&lt;br&gt;&lt;/div&gt;&lt;div&gt;in the end tabby cat is final god boss&lt;/div&gt;&lt;div&gt;&lt;br&gt;&lt;/div&gt;&lt;div&gt;end of game zooms out from snoozing twix&lt;/div&gt;&lt;div&gt;&lt;br&gt;&lt;/div&gt;&lt;div&gt;this is a god dream&lt;/div&gt;&lt;div&gt;We&#39;re on an ultrlight beam&lt;/div&gt;" style="rounded=0;whiteSpace=wrap;html=1;" parent="1" vertex="1">
                    <mxGeometry x="50" y="840" width="280" height="180" as="geometry"/>
                </mxCell>
                <mxCell id="_eeatI-6LmOxNyW0kUMp-2" value="Inject&lt;br&gt;JESUS JUICE&lt;div&gt;to greatly enhance tincture&lt;/div&gt;" style="rounded=0;whiteSpace=wrap;html=1;" parent="1" vertex="1">
                    <mxGeometry x="350" y="1130" width="120" height="60" as="geometry"/>
                </mxCell>
                <mxCell id="_eeatI-6LmOxNyW0kUMp-3" value="Sing Song About&lt;div&gt;Porridge&lt;/div&gt;&lt;div&gt;&lt;br&gt;&lt;/div&gt;&lt;div&gt;is like summon animation from ff7&lt;/div&gt;&lt;div&gt;&lt;br&gt;&lt;/div&gt;&lt;div&gt;maybe there are words learned like minish cap that you insert for different results.&lt;/div&gt;" style="rounded=0;whiteSpace=wrap;html=1;" parent="1" vertex="1">
                    <mxGeometry x="380" y="1270" width="120" height="180" as="geometry"/>
                </mxCell>
                <mxCell id="_eeatI-6LmOxNyW0kUMp-4" value="Pray is like&lt;div&gt;turning into dragon quarter&lt;/div&gt;" style="rounded=0;whiteSpace=wrap;html=1;" parent="1" vertex="1">
                    <mxGeometry x="540" y="1130" width="120" height="60" as="geometry"/>
                </mxCell>
                <mxCell id="WhSgem01bFfFkYUl3J8e-1" value="&lt;div&gt;&lt;b&gt;������&lt;/b&gt;&lt;/div&gt;&lt;b&gt;death beseech you&lt;/b&gt;&lt;div&gt;&lt;b&gt;������&lt;/b&gt;&lt;span style=&quot;background-color: transparent;&quot;&gt;&lt;b&gt;������&lt;/b&gt;&lt;/span&gt;&lt;span style=&quot;background-color: transparent;&quot;&gt;&lt;b&gt;������&lt;br&gt;&lt;/b&gt;&lt;/span&gt;&lt;/div&gt;" style="rounded=0;whiteSpace=wrap;html=1;" parent="1" vertex="1">
                    <mxGeometry x="282" width="256" height="60" as="geometry"/>
                </mxCell>
                <mxCell id="WhSgem01bFfFkYUl3J8e-2" value="Catch Foes in PNematic Tubes.&lt;div&gt;Up[on captuire you may choose to&lt;/div&gt;&lt;div&gt;keep or convert.&lt;/div&gt;&lt;div&gt;&lt;br&gt;&lt;/div&gt;&lt;div&gt;Converting sqeezezes their essence out of pnematic tube to be used as stim packs&lt;/div&gt;&lt;div&gt;&lt;br&gt;&lt;/div&gt;&lt;div&gt;or potentially to create tarot card&lt;/div&gt;" style="rounded=0;whiteSpace=wrap;html=1;" parent="1" vertex="1">
                    <mxGeometry x="530" y="1260" width="120" height="250" as="geometry"/>
                </mxCell>
                <mxCell id="WhSgem01bFfFkYUl3J8e-3" value="Name selection has&lt;div&gt;ouija board option&lt;/div&gt;&lt;div&gt;where ghost&lt;/div&gt;&lt;div&gt;asks is your name wendolf&lt;/div&gt;&lt;div&gt;bardolf&lt;/div&gt;&lt;div&gt;rolg&lt;/div&gt;" style="rounded=0;whiteSpace=wrap;html=1;" parent="1" vertex="1">
                    <mxGeometry x="370" y="1520" width="120" height="150" as="geometry"/>
                </mxCell>
                <mxCell id="WhSgem01bFfFkYUl3J8e-4" value="Collecting specimenss&lt;div&gt;for Darwins Theory of&lt;/div&gt;&lt;div&gt;Evolution&lt;/div&gt;" style="rounded=0;whiteSpace=wrap;html=1;" parent="1" vertex="1">
                    <mxGeometry x="550" y="1560" width="120" height="180" as="geometry"/>
                </mxCell>
                <mxCell id="QeXgW6aQJEQ1C3spduMK-1" value="Hot foot bath&lt;div&gt;wet sheet therapy&lt;/div&gt;&lt;div&gt;&lt;br&gt;&lt;/div&gt;" style="rounded=0;whiteSpace=wrap;html=1;" parent="1" vertex="1">
                    <mxGeometry x="380" y="910" width="120" height="120" as="geometry"/>
                </mxCell>
                <mxCell id="zhvqqRehltlr2zDm-ukN-1" value="&lt;font style=&quot;color: rgb(51, 0, 0);&quot;&gt;Attack Moves&lt;/font&gt;&lt;div&gt;&lt;font style=&quot;color: rgb(51, 0, 0);&quot;&gt;&lt;br&gt;&lt;/font&gt;&lt;/div&gt;&lt;div&gt;&lt;div style=&quot;font-family: &amp;quot;Operator Mono Lig&amp;quot;, Menlo, Monaco, &amp;quot;Courier New&amp;quot;, monospace, Consolas, &amp;quot;Courier New&amp;quot;, monospace; font-size: 14px; line-height: 19px; white-space: pre;&quot;&gt;&lt;span style=&quot;background-color: light-dark(#ffffff, var(--ge-dark-color, #121212));&quot;&gt;&lt;font style=&quot;color: rgb(51, 0, 0);&quot;&gt;Laudanum&lt;/font&gt;&lt;/span&gt;&lt;/div&gt;&lt;/div&gt;&lt;div style=&quot;font-family: &amp;quot;Operator Mono Lig&amp;quot;, Menlo, Monaco, &amp;quot;Courier New&amp;quot;, monospace, Consolas, &amp;quot;Courier New&amp;quot;, monospace; font-size: 14px; line-height: 19px; white-space: pre; color: rgb(239, 240, 235);&quot;&gt;&lt;div style=&quot;line-height: 19px;&quot;&gt;&lt;span style=&quot;background-color: light-dark(#ffffff, var(--ge-dark-color, #121212)); color: rgb(90, 247, 142);&quot;&gt;&lt;font style=&quot;color: rgb(51, 0, 0);&quot;&gt;Extol&lt;/font&gt;&lt;/span&gt;&lt;/div&gt;&lt;div style=&quot;line-height: 19px;&quot;&gt;&lt;span style=&quot;background-color: light-dark(#ffffff, var(--ge-dark-color, #121212)); color: rgb(90, 247, 142);&quot;&gt;&lt;font style=&quot;color: rgb(51, 0, 0);&quot;&gt;Forward March&lt;/font&gt;&lt;/span&gt;&lt;/div&gt;&lt;div style=&quot;line-height: 19px;&quot;&gt;&lt;div style=&quot;line-height: 19px;&quot;&gt;&lt;span style=&quot;background-color: light-dark(#ffffff, var(--ge-dark-color, #121212)); color: rgb(90, 247, 142);&quot;&gt;&lt;font style=&quot;color: rgb(51, 0, 0);&quot;&gt;Cough Blood&lt;/font&gt;&lt;/span&gt;&lt;/div&gt;&lt;/div&gt;&lt;/div&gt;" style="rounded=0;whiteSpace=wrap;html=1;strokeColor=#330000;" parent="1" vertex="1">
                    <mxGeometry x="580" y="930" width="120" height="110" as="geometry"/>
                </mxCell>
                <mxCell id="qNe9hVO4kIWgMy4WHAtG-1" value="&lt;div&gt;if Prayer&lt;/div&gt;Light beams down&lt;div&gt;from duel circle&lt;/div&gt;&lt;div&gt;and various gods&lt;/div&gt;&lt;div&gt;give you boons&lt;/div&gt;&lt;div&gt;&lt;br&gt;&lt;/div&gt;&lt;div&gt;Its a christmas&lt;/div&gt;&lt;div&gt;miracle&lt;/div&gt;" style="rounded=0;whiteSpace=wrap;html=1;" parent="1" vertex="1">
                    <mxGeometry x="550" y="1790" width="120" height="160" as="geometry"/>
                </mxCell>
                <mxCell id="qNe9hVO4kIWgMy4WHAtG-2" value="" style="ellipse;whiteSpace=wrap;html=1;" parent="1" vertex="1">
                    <mxGeometry x="595" y="1780" width="30" height="20" as="geometry"/>
                </mxCell>
                <mxCell id="2" value="Bridge Town&lt;br&gt;Town on a Bridge&lt;br&gt;&lt;div&gt;&lt;br&gt;&lt;/div&gt;&lt;div&gt;Bridge town is a town on a bridge based on the london bridge houses that burned down in the great fire of london.&lt;br&gt;&lt;br&gt;This small and manageable sttlement represents victorian London. Swampy marshy low lands lead up to the foggy bridge town.&lt;/div&gt;&lt;div&gt;&lt;br&gt;&lt;/div&gt;&lt;div&gt;The orphan ends up burning the town down. The player is given a choice to burn or not to burn the town.&amp;nbsp; If choosing to burn town we get an existential monologue about the darkness brewing an a discarded child, shunned by the world. If choosing not to burn down the town we get an oops you did it anyways. Then have a constible chase scene out of the Town.&amp;nbsp; Where the Consitbles don&#39;t even notice you.&lt;/div&gt;&lt;div&gt;Then the denizens of the town now ash people chase and attack you through the game.&lt;/div&gt;" style="rounded=0;whiteSpace=wrap;html=1;" parent="1" vertex="1">
                    <mxGeometry x="390" y="2003.75" width="260" height="332.5" as="geometry"/>
                </mxCell>
                <mxCell id="3" value="Monstary on a Ciff" style="rounded=0;whiteSpace=wrap;html=1;" parent="1" vertex="1">
                    <mxGeometry x="10" y="2140" width="120" height="60" as="geometry"/>
                </mxCell>
                <mxCell id="4" value="" style="endArrow=classic;html=1;exitX=1;exitY=0.5;exitDx=0;exitDy=0;" parent="1" source="3" edge="1">
                    <mxGeometry width="50" height="50" relative="1" as="geometry">
                        <mxPoint x="380" y="2240" as="sourcePoint"/>
                        <mxPoint x="200" y="2170" as="targetPoint"/>
                    </mxGeometry>
                </mxCell>
                <mxCell id="5" value="Infinite&lt;div&gt;Graveyard&lt;/div&gt;" style="whiteSpace=wrap;html=1;aspect=fixed;" parent="1" vertex="1">
                    <mxGeometry x="160" y="2130" width="80" height="80" as="geometry"/>
                </mxCell>
                <mxCell id="6" value="" style="endArrow=classic;html=1;exitX=1;exitY=0.5;exitDx=0;exitDy=0;entryX=0;entryY=0.5;entryDx=0;entryDy=0;" parent="1" source="7" target="2" edge="1">
                    <mxGeometry width="50" height="50" relative="1" as="geometry">
                        <mxPoint x="260" y="2240" as="sourcePoint"/>
                        <mxPoint x="310" y="2190" as="targetPoint"/>
                    </mxGeometry>
                </mxCell>
                <mxCell id="8" value="" style="endArrow=classic;html=1;exitX=1;exitY=0.5;exitDx=0;exitDy=0;entryX=0;entryY=0.5;entryDx=0;entryDy=0;" parent="1" source="5" target="7" edge="1">
                    <mxGeometry width="50" height="50" relative="1" as="geometry">
                        <mxPoint x="280" y="2170" as="sourcePoint"/>
                        <mxPoint x="390" y="2170" as="targetPoint"/>
                    </mxGeometry>
                </mxCell>
                <mxCell id="7" value="Swampy&lt;div&gt;Lowlands&lt;/div&gt;" style="whiteSpace=wrap;html=1;aspect=fixed;" parent="1" vertex="1">
                    <mxGeometry x="270" y="2130" width="80" height="80" as="geometry"/>
                </mxCell>
                <mxCell id="9" value="Champignon Forst" style="whiteSpace=wrap;html=1;aspect=fixed;" parent="1" vertex="1">
                    <mxGeometry x="710" y="2130" width="80" height="80" as="geometry"/>
                </mxCell>
                <mxCell id="10" value="" style="endArrow=classic;html=1;exitX=1;exitY=0.5;exitDx=0;exitDy=0;entryX=0;entryY=0.5;entryDx=0;entryDy=0;" parent="1" source="2" target="9" edge="1">
                    <mxGeometry width="50" height="50" relative="1" as="geometry">
                        <mxPoint x="710" y="2240" as="sourcePoint"/>
                        <mxPoint x="760" y="2190" as="targetPoint"/>
                    </mxGeometry>
                </mxCell>
                <mxCell id="11" value="" style="endArrow=classic;html=1;exitX=0.5;exitY=1;exitDx=0;exitDy=0;entryX=0.5;entryY=0;entryDx=0;entryDy=0;" parent="1" source="9" target="12" edge="1">
                    <mxGeometry width="50" height="50" relative="1" as="geometry">
                        <mxPoint x="710" y="2240" as="sourcePoint"/>
                        <mxPoint x="750" y="2260" as="targetPoint"/>
                    </mxGeometry>
                </mxCell>
                <mxCell id="12" value="Mount Royal&lt;div&gt;Nunnery&lt;/div&gt;&lt;div&gt;Lava ModGod&lt;/div&gt;" style="whiteSpace=wrap;html=1;aspect=fixed;" parent="1" vertex="1">
                    <mxGeometry x="710" y="2250" width="80" height="80" as="geometry"/>
                </mxCell>
                <mxCell id="13" value="&lt;div&gt;&lt;span style=&quot;color: rgb(0, 0, 0);&quot;&gt;Sissy Dupe&lt;/span&gt;&lt;/div&gt;&lt;span style=&quot;color: rgb(63, 63, 63);&quot;&gt;Tuberculosis Girl&lt;/span&gt;&lt;br&gt;&lt;div&gt;Type: Blood Thirsty&lt;/div&gt;" style="rounded=1;whiteSpace=wrap;html=1;" parent="1" vertex="1">
                    <mxGeometry x="230" y="220" width="150" height="60" as="geometry"/>
                </mxCell>
                <mxCell id="14" value="Part 1 tutorial is a linear story introducing basic concepts of the game. The world setting, modgodding elements by defeating deities.&lt;div&gt;&lt;br&gt;&lt;/div&gt;&lt;div&gt;Part 2 opens up where Market day happens on Sundays. Different potential parents show up and invite orphan on a potential adventure. Of course the orphan can do things to not be adopted and instead stay at the Cathedreal and work the land... aka hunt for slugs.&lt;/div&gt;&lt;div&gt;&lt;br&gt;&lt;/div&gt;&lt;div&gt;Going with a parent can lead to fighting deitys or justa funny interaction, a piece of loot. More orphans to till the land at the oprhanage.&lt;/div&gt;" style="rounded=0;whiteSpace=wrap;html=1;" parent="1" vertex="1">
                    <mxGeometry x="100" y="2390" width="200" height="290" as="geometry"/>
                </mxCell>
                <mxCell id="15" value="The first line ever written on a computer:&lt;div&gt;&lt;br&gt;&lt;/div&gt;&lt;div&gt;&lt;br&gt;&lt;/div&gt;&lt;div&gt;Hell World&lt;/div&gt;" style="rounded=0;whiteSpace=wrap;html=1;" parent="1" vertex="1">
                    <mxGeometry x="330" y="2390" width="130" height="100" as="geometry"/>
                </mxCell>
                <mxCell id="YjPkbUaIYx_jNYHQSDdL-15" value="&lt;div&gt;&lt;span style=&quot;background-color: transparent; color: light-dark(rgb(0, 0, 0), rgb(255, 255, 255));&quot;&gt;Church upon Claw&lt;/span&gt;&lt;/div&gt;&lt;div&gt;&lt;span style=&quot;background-color: transparent; color: light-dark(rgb(0, 0, 0), rgb(255, 255, 255));&quot;&gt;(&lt;/span&gt;&lt;span style=&quot;background-color: transparent; color: light-dark(rgb(0, 0, 0), rgb(255, 255, 255));&quot;&gt;Dewclaw Cathedral)&lt;/span&gt;&lt;/div&gt;&lt;div&gt;Endless Graveyard&lt;/div&gt;&lt;div&gt;Town upon Bridge&lt;/div&gt;&lt;div&gt;Misty Moors&lt;/div&gt;&lt;div&gt;Champignon Forest&lt;/div&gt;&lt;div&gt;Wailing Sisters Convent&lt;/div&gt;&lt;div&gt;Lunar Coda&lt;/div&gt;&lt;div&gt;You Will Die Mountain&lt;/div&gt;&lt;div&gt;(Mount Royal)&lt;/div&gt;&lt;div&gt;The Administrative Moons of Hell&lt;/div&gt;&lt;div&gt;Hell World&lt;/div&gt;&lt;div&gt;Hello World&lt;/div&gt;&lt;div&gt;&lt;br&gt;&lt;/div&gt;" style="rounded=0;whiteSpace=wrap;html=1;" parent="1" vertex="1">
                    <mxGeometry x="390" y="2560" width="240" height="240" as="geometry"/>
                </mxCell>
                <mxCell id="YjPkbUaIYx_jNYHQSDdL-16" value="Nun is aging fast, to get from Wailing Sisters Covenent at the foot of You Will Die Mountain&lt;div&gt;You must hop upon the moon&lt;/div&gt;&lt;div&gt;Lunar Coda&lt;/div&gt;&lt;div&gt;To ride it across the sky to you&lt;/div&gt;&lt;div&gt;will die mountain&lt;/div&gt;&lt;div&gt;&lt;br&gt;&lt;/div&gt;&lt;div&gt;either that or Moon is where Hell administration is administered&lt;br&gt;&lt;div&gt;&lt;br&gt;&lt;/div&gt;&lt;/div&gt;" style="rounded=0;whiteSpace=wrap;html=1;" parent="1" vertex="1">
                    <mxGeometry x="110" y="2860" width="188" height="200" as="geometry"/>
                </mxCell>
                <mxCell id="YjPkbUaIYx_jNYHQSDdL-17" value="Chicken God&lt;div&gt;Attack moveset&lt;/div&gt;&lt;div&gt;What came first&lt;/div&gt;&lt;div&gt;Chicken or Egg?&lt;/div&gt;" style="rounded=0;whiteSpace=wrap;html=1;" parent="1" vertex="1">
                    <mxGeometry x="400" y="2840" width="120" height="60" as="geometry"/>
                </mxCell>
                <mxCell id="16" value="Unlocked Toggle in Menu" style="rounded=0;whiteSpace=wrap;html=1;" parent="1" vertex="1">
                    <mxGeometry x="550" y="2840" width="120" height="60" as="geometry"/>
                </mxCell>
                <mxCell id="58IuxtUkfn7E68bcIEmH-16" value="Nihilism moves charged at night&lt;div&gt;&lt;br&gt;&lt;/div&gt;&lt;div&gt;Optimism moves in Day&lt;/div&gt;" style="rounded=0;whiteSpace=wrap;html=1;" parent="1" vertex="1">
                    <mxGeometry x="595" y="2950" width="120" height="130" as="geometry"/>
                </mxCell>
                <mxCell id="17" value="Orphans challenge you to duel" style="rounded=0;whiteSpace=wrap;html=1;" parent="1" vertex="1">
                    <mxGeometry x="130" y="2720" width="120" height="60" as="geometry"/>
                </mxCell>
                <mxCell id="FhYe4CfdeehGhFqYvxai-17" value="Walking the cow&lt;div&gt;Along Copyright LAw Lands&lt;/div&gt;&lt;div&gt;if you step on the copywritten tile sets the Queen&#39;s Guard&amp;nbsp;&lt;/div&gt;&lt;div&gt;attack&lt;/div&gt;&lt;div&gt;&lt;br&gt;&lt;/div&gt;&lt;div&gt;The queen is Victoria who holds the plaster mold of alberts hand... when fighting the sillouhette of alberts ghost appears and he attacks,&lt;/div&gt;&lt;div&gt;&lt;br&gt;&lt;/div&gt;&lt;div&gt;&lt;br&gt;&lt;/div&gt;" style="whiteSpace=wrap;html=1;aspect=fixed;" parent="1" vertex="1">
                    <mxGeometry x="170" y="3140" width="230" height="230" as="geometry"/>
                </mxCell>
                <mxCell id="ge01rvNQZDmTp5gs2OYc-17" value="Walking the cow&lt;div&gt;Mini Game&lt;/div&gt;&lt;div&gt;&lt;br&gt;&lt;/div&gt;&lt;div&gt;Walking the cow&lt;/div&gt;&lt;div&gt;Rail walker&lt;/div&gt;&lt;div&gt;The player can swing a stick left or right&lt;/div&gt;&lt;div&gt;Swinging the stick rings the bell on Bessie&#39;s neck&lt;/div&gt;&lt;div&gt;The ring attracts the copywraiths&lt;/div&gt;&lt;div&gt;&lt;br&gt;&lt;/div&gt;&lt;div&gt;Swing stick left and right at incoming enemies.&lt;/div&gt;&lt;div&gt;Every swing cause the cow to veer in that direction.&lt;/div&gt;&lt;div&gt;&lt;br&gt;&lt;/div&gt;&lt;div&gt;3 swings will bring you to the edge&lt;/div&gt;&lt;div&gt;&lt;br&gt;&lt;div&gt;&lt;br&gt;&lt;/div&gt;&lt;div&gt;You are faced with a series&lt;/div&gt;&lt;div&gt;of moral dilemas&lt;/div&gt;&lt;div&gt;&lt;br&gt;&lt;/div&gt;&lt;div&gt;Will you step on Copywritten Lands?&lt;/div&gt;&lt;div&gt;&lt;br&gt;&lt;/div&gt;&lt;div&gt;And invite the wrath of Copywraiths.&lt;/div&gt;&lt;div&gt;&lt;br&gt;&lt;/div&gt;&lt;div&gt;A Nobbit in a knowl invites you to walk his cow along Copywraith&lt;/div&gt;&lt;div&gt;lands.&lt;/div&gt;&lt;div&gt;&lt;br&gt;&lt;/div&gt;&lt;div&gt;&lt;br&gt;&lt;/div&gt;&lt;/div&gt;" style="rounded=0;whiteSpace=wrap;html=1;" parent="1" vertex="1">
                    <mxGeometry x="414" y="3140" width="296" height="430" as="geometry"/>
                </mxCell>
                <mxCell id="ge01rvNQZDmTp5gs2OYc-18" value="There is a church that&lt;div&gt;needs one more bell&lt;/div&gt;&lt;div&gt;to finish it&#39;s tower&lt;/div&gt;&lt;div&gt;&lt;br&gt;&lt;/div&gt;&lt;div&gt;Bring the bell on Bessie&#39;s Collar to&lt;/div&gt;&lt;div&gt;finish the church&lt;/div&gt;" style="rounded=0;whiteSpace=wrap;html=1;" parent="1" vertex="1">
                    <mxGeometry x="230" y="3400" width="120" height="110" as="geometry"/>
                </mxCell>
                <mxCell id="ge01rvNQZDmTp5gs2OYc-20" value="Saying goodbye to&lt;div&gt;the other orphans in&lt;/div&gt;&lt;div&gt;the orphanage&lt;/div&gt;&lt;div&gt;each orphan attacks you out&lt;/div&gt;&lt;div&gt;of jealousy that you &#39;ve been&lt;/div&gt;&lt;div&gt;adopted&lt;/div&gt;" style="rounded=0;whiteSpace=wrap;html=1;" parent="1" vertex="1">
                    <mxGeometry x="380" y="2930" width="170" height="120" as="geometry"/>
                </mxCell>
                <mxCell id="ge01rvNQZDmTp5gs2OYc-21" value="Along the way the orphan is stopped by a unknown voice&lt;div&gt;provided moral choices&lt;/div&gt;&lt;div&gt;such as pouring seeds into&lt;/div&gt;&lt;div&gt;the cows ear to kill it.&lt;/div&gt;&lt;div&gt;&lt;br&gt;&lt;/div&gt;&lt;div&gt;Or leading the cow off a cliff.&lt;/div&gt;&lt;div&gt;&lt;br&gt;&lt;/div&gt;&lt;div&gt;It turns out that the cow is infested by a talking tape worm, which if the wrong choice is made the orphan will have to fight.&lt;/div&gt;&lt;div&gt;&lt;br&gt;&lt;/div&gt;&lt;div&gt;Ultimately leading the cow to the Toll Troll will have him eat the cow and allow you to pass unharmed.&lt;/div&gt;" style="rounded=0;whiteSpace=wrap;html=1;" parent="1" vertex="1">
                    <mxGeometry x="20" y="3390" width="190" height="250" as="geometry"/>
                </mxCell>
                <mxCell id="18" value="Frozen Sea&lt;div&gt;Walking Moses Path&lt;/div&gt;" style="rounded=0;whiteSpace=wrap;html=1;" parent="1" vertex="1">
                    <mxGeometry x="50" y="3680" width="120" height="60" as="geometry"/>
                </mxCell>
                <mxCell id="19" value="&lt;div&gt;Living Hell Mountain&lt;/div&gt;Three eyed Cat&lt;div&gt;If Third eye opens&lt;/div&gt;&lt;div&gt;Flame explodes out of it&lt;/div&gt;&lt;div&gt;and ignites it&#39;s mane&lt;/div&gt;" style="rounded=0;whiteSpace=wrap;html=1;" parent="1" vertex="1">
                    <mxGeometry x="40" y="3780" width="140" height="120" as="geometry"/>
                </mxCell>
                <mxCell id="20" value="Zeitgosts&lt;div&gt;Are brains from Conformists in bridgerton.&lt;/div&gt;&lt;div&gt;Conformists vs Nihilists&lt;/div&gt;" style="rounded=0;whiteSpace=wrap;html=1;" parent="1" vertex="1">
                    <mxGeometry x="200" y="3750" width="120" height="120" as="geometry"/>
                </mxCell>
                <mxCell id="21" value="Conversation system&lt;div&gt;to piss off people&lt;/div&gt;&lt;div&gt;and provoke them&lt;/div&gt;&lt;div&gt;to battle.&lt;/div&gt;&lt;div&gt;In starting area&lt;/div&gt;&lt;div&gt;you may recieve&lt;/div&gt;&lt;div&gt;good starter gear by&lt;/div&gt;&lt;div&gt;defeating orphans&lt;/div&gt;&lt;div&gt;around the church.&lt;/div&gt;" style="ellipse;whiteSpace=wrap;html=1;aspect=fixed;" parent="1" vertex="1">
                    <mxGeometry x="230" y="3540" width="180" height="180" as="geometry"/>
                </mxCell>
                <mxCell id="22" value="Church" style="rounded=0;whiteSpace=wrap;html=1;" parent="1" vertex="1">
                    <mxGeometry x="40" y="4100" width="120" height="60" as="geometry"/>
                </mxCell>
                <mxCell id="23" value="" style="shape=flexArrow;endArrow=classic;html=1;exitX=1;exitY=0.5;exitDx=0;exitDy=0;" parent="1" source="22" edge="1">
                    <mxGeometry width="50" height="50" relative="1" as="geometry">
                        <mxPoint x="170" y="4130" as="sourcePoint"/>
                        <mxPoint x="220" y="4130" as="targetPoint"/>
                    </mxGeometry>
                </mxCell>
                <mxCell id="24" value="Endless Graves" style="rounded=0;whiteSpace=wrap;html=1;" parent="1" vertex="1">
                    <mxGeometry x="220" y="4100" width="120" height="60" as="geometry"/>
                </mxCell>
                <mxCell id="26" value="" style="shape=flexArrow;endArrow=classic;html=1;exitX=1;exitY=0.5;exitDx=0;exitDy=0;" parent="1" source="24" edge="1">
                    <mxGeometry width="50" height="50" relative="1" as="geometry">
                        <mxPoint x="170" y="4140" as="sourcePoint"/>
                        <mxPoint x="410" y="4130" as="targetPoint"/>
                    </mxGeometry>
                </mxCell>
                <mxCell id="28" value="Walking the cow&lt;div&gt;Feed To Satiate Ogre&lt;/div&gt;" style="rounded=0;whiteSpace=wrap;html=1;" parent="1" vertex="1">
                    <mxGeometry x="588" y="4010" width="120" height="60" as="geometry"/>
                </mxCell>
                <mxCell id="29" value="" style="shape=flexArrow;endArrow=classic;html=1;exitX=1;exitY=0.5;exitDx=0;exitDy=0;" parent="1" source="28" edge="1">
                    <mxGeometry width="50" height="50" relative="1" as="geometry">
                        <mxPoint x="710" y="4050" as="sourcePoint"/>
                        <mxPoint x="780" y="4080" as="targetPoint"/>
                    </mxGeometry>
                </mxCell>
                <mxCell id="30" value="Feed 1 Turburculous Orphan to kill Ogre" style="rounded=0;whiteSpace=wrap;html=1;" parent="1" vertex="1">
                    <mxGeometry x="588" y="4192" width="120" height="60" as="geometry"/>
                </mxCell>
                <mxCell id="31" value="" style="shape=flexArrow;endArrow=classic;html=1;exitX=1;exitY=0.5;exitDx=0;exitDy=0;" parent="1" source="30" edge="1">
                    <mxGeometry width="50" height="50" relative="1" as="geometry">
                        <mxPoint x="710" y="4192" as="sourcePoint"/>
                        <mxPoint x="780" y="4180" as="targetPoint"/>
                    </mxGeometry>
                </mxCell>
                <mxCell id="34" value="Objects on Battle Scene&lt;div&gt;sometimes there will be&lt;/div&gt;&lt;div&gt;a sword in a skeleton&lt;/div&gt;&lt;div&gt;or a gun in the center of the grid&lt;/div&gt;&lt;div&gt;player can fight it&#39;s way to grab item&lt;/div&gt;&lt;div&gt;and use it to quickly defeat&lt;/div&gt;&lt;div&gt;enemy&lt;/div&gt;" style="rounded=0;whiteSpace=wrap;html=1;" parent="1" vertex="1">
                    <mxGeometry x="480" y="3610" width="180" height="140" as="geometry"/>
                </mxCell>
                <mxCell id="36" value="Ogre&lt;div&gt;Fight and Win&lt;/div&gt;" style="rhombus;whiteSpace=wrap;html=1;" parent="1" vertex="1">
                    <mxGeometry x="580" y="4070" width="136" height="120" as="geometry"/>
                </mxCell>
                <mxCell id="37" value="" style="endArrow=classic;html=1;entryX=0;entryY=0.5;entryDx=0;entryDy=0;" parent="1" source="54" target="28" edge="1">
                    <mxGeometry width="50" height="50" relative="1" as="geometry">
                        <mxPoint x="430" y="4160" as="sourcePoint"/>
                        <mxPoint x="480" y="4110" as="targetPoint"/>
                    </mxGeometry>
                </mxCell>
                <mxCell id="38" value="" style="endArrow=classic;html=1;exitX=1;exitY=1;exitDx=0;exitDy=0;entryX=0;entryY=0.5;entryDx=0;entryDy=0;" parent="1" source="24" target="30" edge="1">
                    <mxGeometry width="50" height="50" relative="1" as="geometry">
                        <mxPoint x="430" y="4160" as="sourcePoint"/>
                        <mxPoint x="480" y="4110" as="targetPoint"/>
                    </mxGeometry>
                </mxCell>
                <mxCell id="39" value="&lt;div&gt;REference to 1800 fine art&lt;/div&gt;Meowphelia&lt;div&gt;scream&lt;/div&gt;" style="rounded=1;whiteSpace=wrap;html=1;" parent="1" vertex="1">
                    <mxGeometry x="20" y="4502" width="120" height="60" as="geometry"/>
                </mxCell>
                <mxCell id="40" value="Giant Mewophelia&lt;div&gt;Tries to bat you uin mushroom forest&lt;/div&gt;&lt;div&gt;sits in swamp&lt;/div&gt;&lt;div&gt;&lt;br&gt;&lt;/div&gt;&lt;div&gt;trial of ma na tree art&lt;/div&gt;" style="rounded=1;whiteSpace=wrap;html=1;" parent="1" vertex="1">
                    <mxGeometry x="172" y="4450" width="138" height="120" as="geometry"/>
                </mxCell>
                <mxCell id="41" value="Idea:&lt;div&gt;Camera is always faceing Cathederal.&lt;/div&gt;&lt;div&gt;Each new map zooms out one area further, showing the previous area in a lower resolution,&lt;/div&gt;&lt;div&gt;like 8 bit&lt;/div&gt;" style="ellipse;whiteSpace=wrap;html=1;aspect=fixed;" parent="1" vertex="1">
                    <mxGeometry x="50" y="4610" width="180" height="180" as="geometry"/>
                </mxCell>
                <mxCell id="43" value="Preference:&lt;div&gt;Map wraps around a rotating&amp;nbsp;&lt;/div&gt;&lt;div&gt;Cathedral&lt;/div&gt;&lt;div&gt;&lt;br&gt;&lt;/div&gt;" style="rounded=1;whiteSpace=wrap;html=1;" parent="1" vertex="1">
                    <mxGeometry x="40" y="4770" width="200" height="60" as="geometry"/>
                </mxCell>
                <mxCell id="44" value="" style="endArrow=classic;html=1;exitX=0.623;exitY=0.993;exitDx=0;exitDy=0;exitPerimeter=0;entryX=0;entryY=0.5;entryDx=0;entryDy=0;" parent="1" source="24" target="45" edge="1">
                    <mxGeometry width="50" height="50" relative="1" as="geometry">
                        <mxPoint x="440" y="4250" as="sourcePoint"/>
                        <mxPoint x="400" y="4330" as="targetPoint"/>
                    </mxGeometry>
                </mxCell>
                <mxCell id="45" value="Feed 3 Orphans&lt;div&gt;To Ogre&lt;/div&gt;&lt;div&gt;To make him full&lt;/div&gt;" style="rounded=0;whiteSpace=wrap;html=1;" parent="1" vertex="1">
                    <mxGeometry x="590" y="4290" width="120" height="60" as="geometry"/>
                </mxCell>
                <mxCell id="46" value="&lt;span style=&quot;color: rgb(0, 0, 0);&quot;&gt;Cut Rope Bridge&lt;/span&gt;&lt;div&gt;Turn it into Ladder&lt;/div&gt;&lt;div&gt;You can not get back&lt;/div&gt;&lt;div&gt;But if restarting as new orphan&lt;/div&gt;&lt;div&gt;can use&lt;/div&gt;" style="rounded=0;whiteSpace=wrap;html=1;" parent="1" vertex="1">
                    <mxGeometry x="588" y="3900" width="120" height="100" as="geometry"/>
                </mxCell>
                <mxCell id="47" value="" style="endArrow=classic;html=1;exitX=0.67;exitY=-0.047;exitDx=0;exitDy=0;exitPerimeter=0;entryX=0;entryY=0.5;entryDx=0;entryDy=0;" parent="1" source="24" target="46" edge="1">
                    <mxGeometry width="50" height="50" relative="1" as="geometry">
                        <mxPoint x="440" y="4010" as="sourcePoint"/>
                        <mxPoint x="490" y="3960" as="targetPoint"/>
                    </mxGeometry>
                </mxCell>
                <mxCell id="49" value="" style="endArrow=classic;html=1;exitX=0.5;exitY=0;exitDx=0;exitDy=0;entryX=0.5;entryY=1;entryDx=0;entryDy=0;" parent="1" source="54" target="53" edge="1">
                    <mxGeometry relative="1" as="geometry">
                        <mxPoint x="300" y="4230" as="sourcePoint"/>
                        <mxPoint x="280" y="4010" as="targetPoint"/>
                    </mxGeometry>
                </mxCell>
                <mxCell id="52" value="Holy Power" style="edgeLabel;html=1;align=center;verticalAlign=middle;resizable=0;points=[];" parent="49" vertex="1" connectable="0">
                    <mxGeometry x="0.0072" y="6" relative="1" as="geometry">
                        <mxPoint x="7" y="-8" as="offset"/>
                    </mxGeometry>
                </mxCell>
                <mxCell id="53" value="Deliver Cow Bell To&lt;div&gt;Tower&lt;/div&gt;" style="rounded=0;whiteSpace=wrap;html=1;" parent="1" vertex="1">
                    <mxGeometry x="418" y="3880" width="120" height="60" as="geometry"/>
                </mxCell>
                <mxCell id="54" value="Stumpy" style="ellipse;whiteSpace=wrap;html=1;aspect=fixed;" parent="1" vertex="1">
                    <mxGeometry x="410" y="4090" width="80" height="80" as="geometry"/>
                </mxCell>
                <mxCell id="55" value="Challenge Cow&lt;div&gt;to a Duel.&lt;/div&gt;&lt;div&gt;Fight&amp;nbsp; the Tape Worm&lt;/div&gt;" style="rounded=0;whiteSpace=wrap;html=1;" parent="1" vertex="1">
                    <mxGeometry x="280" y="3950" width="120" height="60" as="geometry"/>
                </mxCell>
                <mxCell id="56" value="" style="endArrow=classic;html=1;exitX=0;exitY=0;exitDx=0;exitDy=0;entryX=0.5;entryY=1;entryDx=0;entryDy=0;" parent="1" source="54" target="55" edge="1">
                    <mxGeometry relative="1" as="geometry">
                        <mxPoint x="469.76" y="4233" as="sourcePoint"/>
                        <mxPoint x="594.76" y="4020" as="targetPoint"/>
                    </mxGeometry>
                </mxCell>
                <mxCell id="58" value="Satanic Power" style="edgeLabel;html=1;align=center;verticalAlign=middle;resizable=0;points=[];" parent="56" vertex="1" connectable="0">
                    <mxGeometry x="0.0072" y="6" relative="1" as="geometry">
                        <mxPoint x="4" y="1" as="offset"/>
                    </mxGeometry>
                </mxCell>
                <mxCell id="59" value="Valley of Death" style="ellipse;whiteSpace=wrap;html=1;aspect=fixed;" parent="1" vertex="1">
                    <mxGeometry x="990" y="4075" width="110" height="110" as="geometry"/>
                </mxCell>
                <mxCell id="60" value="Rotates&lt;div&gt;Around&lt;/div&gt;&lt;div&gt;in Spiral&lt;/div&gt;&lt;div&gt;you walk through&lt;/div&gt;&lt;div&gt;&amp;nbsp;the bridge you walk across to leave orphanage&lt;/div&gt;" style="whiteSpace=wrap;html=1;aspect=fixed;" parent="1" vertex="1">
                    <mxGeometry x="780" y="4065" width="130" height="130" as="geometry"/>
                </mxCell>
                <mxCell id="61" value="Unlock Elevator&lt;div&gt;To Return To&lt;/div&gt;&lt;div&gt;Parish&lt;/div&gt;" style="rounded=1;whiteSpace=wrap;html=1;" parent="1" vertex="1">
                    <mxGeometry x="785" y="4190" width="120" height="60" as="geometry"/>
                </mxCell>
                <mxCell id="62" value="" style="shape=flexArrow;endArrow=classic;html=1;exitX=1;exitY=0.5;exitDx=0;exitDy=0;" parent="1" source="60" target="59" edge="1">
                    <mxGeometry width="50" height="50" relative="1" as="geometry">
                        <mxPoint x="950" y="4060" as="sourcePoint"/>
                        <mxPoint x="1000" y="4010" as="targetPoint"/>
                    </mxGeometry>
                </mxCell>
                <mxCell id="63" value="Who did you see in the Valley of Death?&lt;div&gt;&lt;br&gt;&lt;/div&gt;&lt;div&gt;Satan and the Lord Do Battle in The Desert of My Soul&lt;/div&gt;&lt;div&gt;&lt;br&gt;&lt;/div&gt;&lt;div&gt;A plaque commerating a statue&lt;/div&gt;&lt;div&gt;of Molag Bol Fighting&lt;/div&gt;&lt;div&gt;An Angel&lt;/div&gt;" style="rounded=1;whiteSpace=wrap;html=1;" parent="1" vertex="1">
                    <mxGeometry x="990" y="4170" width="120" height="170" as="geometry"/>
                </mxCell>
                <mxCell id="65" value="" style="shape=flexArrow;endArrow=classic;html=1;exitX=1;exitY=0.5;exitDx=0;exitDy=0;" parent="1" source="59" target="66" edge="1">
                    <mxGeometry width="50" height="50" relative="1" as="geometry">
                        <mxPoint x="1190" y="4080" as="sourcePoint"/>
                        <mxPoint x="1200" y="4130" as="targetPoint"/>
                    </mxGeometry>
                </mxCell>
                <mxCell id="66" value="The Great Arch" style="rounded=0;whiteSpace=wrap;html=1;" parent="1" vertex="1">
                    <mxGeometry x="1150" y="4100" width="120" height="60" as="geometry"/>
                </mxCell>
                <mxCell id="72" value="Town Upon Bridge" style="rounded=0;whiteSpace=wrap;html=1;" parent="1" vertex="1">
                    <mxGeometry x="1320" y="4100" width="120" height="60" as="geometry"/>
                </mxCell>
                <mxCell id="73" value="" style="shape=flexArrow;endArrow=classic;html=1;exitX=1;exitY=0.5;exitDx=0;exitDy=0;entryX=0;entryY=0.5;entryDx=0;entryDy=0;" parent="1" source="66" target="72" edge="1">
                    <mxGeometry width="50" height="50" relative="1" as="geometry">
                        <mxPoint x="1270" y="4080" as="sourcePoint"/>
                        <mxPoint x="1320" y="4030" as="targetPoint"/>
                    </mxGeometry>
                </mxCell>
                <mxCell id="74" value="" style="endArrow=classic;html=1;exitX=0.5;exitY=0;exitDx=0;exitDy=0;entryX=0;entryY=0.5;entryDx=0;entryDy=0;" parent="1" source="72" target="76" edge="1">
                    <mxGeometry width="50" height="50" relative="1" as="geometry">
                        <mxPoint x="1370" y="4080" as="sourcePoint"/>
                        <mxPoint x="1440" y="4000" as="targetPoint"/>
                    </mxGeometry>
                </mxCell>
                <mxCell id="78" value="Satanic Power" style="edgeLabel;html=1;align=center;verticalAlign=middle;resizable=0;points=[];" parent="74" vertex="1" connectable="0">
                    <mxGeometry x="0.1029" y="-2" relative="1" as="geometry">
                        <mxPoint as="offset"/>
                    </mxGeometry>
                </mxCell>
                <mxCell id="75" value="" style="endArrow=classic;html=1;exitX=0.5;exitY=1;exitDx=0;exitDy=0;entryX=0;entryY=0.5;entryDx=0;entryDy=0;" parent="1" source="72" target="77" edge="1">
                    <mxGeometry width="50" height="50" relative="1" as="geometry">
                        <mxPoint x="1370" y="4080" as="sourcePoint"/>
                        <mxPoint x="1460" y="4250" as="targetPoint"/>
                    </mxGeometry>
                </mxCell>
                <mxCell id="79" value="Holy Power" style="edgeLabel;html=1;align=center;verticalAlign=middle;resizable=0;points=[];" parent="75" vertex="1" connectable="0">
                    <mxGeometry x="-0.0903" y="-2" relative="1" as="geometry">
                        <mxPoint y="1" as="offset"/>
                    </mxGeometry>
                </mxCell>
                <mxCell id="76" value="Nihilism" style="rounded=0;whiteSpace=wrap;html=1;" parent="1" vertex="1">
                    <mxGeometry x="1470" y="4030" width="120" height="60" as="geometry"/>
                </mxCell>
                <mxCell id="77" value="Optimism" style="rounded=0;whiteSpace=wrap;html=1;" parent="1" vertex="1">
                    <mxGeometry x="1470" y="4185" width="120" height="60" as="geometry"/>
                </mxCell>
                <mxCell id="80" value="" style="endArrow=none;dashed=1;html=1;exitX=1;exitY=0.5;exitDx=0;exitDy=0;entryX=0;entryY=0.5;entryDx=0;entryDy=0;" parent="1" source="54" target="36" edge="1">
                    <mxGeometry width="50" height="50" relative="1" as="geometry">
                        <mxPoint x="570" y="4080" as="sourcePoint"/>
                        <mxPoint x="620" y="4030" as="targetPoint"/>
                    </mxGeometry>
                </mxCell>
                <mxCell id="81" value="" style="endArrow=none;dashed=1;html=1;dashPattern=1 3;strokeWidth=2;exitX=1;exitY=0.5;exitDx=0;exitDy=0;entryX=0;entryY=0.5;entryDx=0;entryDy=0;" parent="1" source="36" target="60" edge="1">
                    <mxGeometry width="50" height="50" relative="1" as="geometry">
                        <mxPoint x="690" y="4080" as="sourcePoint"/>
                        <mxPoint x="740" y="4030" as="targetPoint"/>
                    </mxGeometry>
                </mxCell>
                <mxCell id="82" value="" style="endArrow=classic;html=1;exitX=1;exitY=0.5;exitDx=0;exitDy=0;" parent="1" source="77" edge="1">
                    <mxGeometry width="50" height="50" relative="1" as="geometry">
                        <mxPoint x="1640" y="4080" as="sourcePoint"/>
                        <mxPoint x="1660" y="4140" as="targetPoint"/>
                    </mxGeometry>
                </mxCell>
                <mxCell id="83" value="" style="endArrow=classic;html=1;exitX=1;exitY=0.5;exitDx=0;exitDy=0;" parent="1" source="76" edge="1">
                    <mxGeometry width="50" height="50" relative="1" as="geometry">
                        <mxPoint x="1640" y="4080" as="sourcePoint"/>
                        <mxPoint x="1660" y="4130" as="targetPoint"/>
                    </mxGeometry>
                </mxCell>
                <mxCell id="88" value="Town Burns" style="ellipse;whiteSpace=wrap;html=1;aspect=fixed;" parent="1" vertex="1">
                    <mxGeometry x="1660" y="4080" width="100" height="100" as="geometry"/>
                </mxCell>
                <mxCell id="89" value="Ash Orphans&lt;div&gt;Are Created&lt;/div&gt;" style="rounded=1;whiteSpace=wrap;html=1;" parent="1" vertex="1">
                    <mxGeometry x="1650" y="4170" width="120" height="60" as="geometry"/>
                </mxCell>
                <mxCell id="91" value="" style="shape=flexArrow;endArrow=classic;html=1;exitX=1;exitY=0.5;exitDx=0;exitDy=0;" parent="1" source="88" edge="1">
                    <mxGeometry width="50" height="50" relative="1" as="geometry">
                        <mxPoint x="1870" y="4080" as="sourcePoint"/>
                        <mxPoint x="1850" y="4130" as="targetPoint"/>
                    </mxGeometry>
                </mxCell>
                <mxCell id="92" value="Ash Orphans&lt;div&gt;Pursue you&lt;/div&gt;" style="rounded=1;whiteSpace=wrap;html=1;" parent="1" vertex="1">
                    <mxGeometry x="1850" y="4100" width="120" height="60" as="geometry"/>
                </mxCell>
                <mxCell id="93" value="" style="shape=flexArrow;endArrow=classic;html=1;exitX=1;exitY=0.5;exitDx=0;exitDy=0;" parent="1" source="92" edge="1">
                    <mxGeometry width="50" height="50" relative="1" as="geometry">
                        <mxPoint x="1920" y="4080" as="sourcePoint"/>
                        <mxPoint x="2050" y="4130" as="targetPoint"/>
                    </mxGeometry>
                </mxCell>
                <mxCell id="94" value="Town Upon Bridge&lt;div&gt;is a town on a bridge&lt;/div&gt;&lt;div&gt;where Nihilsm as recently broken out.&lt;/div&gt;&lt;div&gt;The optimists not wanting the nihilism to spread are quarantining them&lt;/div&gt;&lt;div&gt;and burning them with fire.&lt;/div&gt;&lt;div&gt;If possible.&lt;/div&gt;&lt;div&gt;Murder by&amp;nbsp;&lt;span style=&quot;background-color: transparent;&quot;&gt;Immolation.&lt;/span&gt;&lt;/div&gt;&lt;div&gt;&lt;span style=&quot;background-color: transparent;&quot;&gt;Immurdolate.&lt;/span&gt;&lt;/div&gt;" style="rounded=1;whiteSpace=wrap;html=1;" parent="1" vertex="1">
                    <mxGeometry x="1470" y="4270" width="150" height="170" as="geometry"/>
                </mxCell>
                <mxCell id="95" value="Mushroom Marshes" style="rounded=0;whiteSpace=wrap;html=1;" parent="1" vertex="1">
                    <mxGeometry x="2050" y="4100" width="120" height="60" as="geometry"/>
                </mxCell>
                <mxCell id="96" value="" style="shape=flexArrow;endArrow=classic;html=1;exitX=1;exitY=0.5;exitDx=0;exitDy=0;" parent="1" source="95" edge="1">
                    <mxGeometry width="50" height="50" relative="1" as="geometry">
                        <mxPoint x="2220" y="4080" as="sourcePoint"/>
                        <mxPoint x="2240" y="4130" as="targetPoint"/>
                    </mxGeometry>
                </mxCell>
                <mxCell id="97" value="Wailing Sisters" style="rounded=0;whiteSpace=wrap;html=1;" parent="1" vertex="1">
                    <mxGeometry x="2240" y="4100" width="120" height="60" as="geometry"/>
                </mxCell>
                <mxCell id="99" value="" style="endArrow=classic;html=1;exitX=0.16;exitY=1.012;exitDx=0;exitDy=0;exitPerimeter=0;" parent="1" source="63" edge="1">
                    <mxGeometry width="50" height="50" relative="1" as="geometry">
                        <mxPoint x="1060" y="4240" as="sourcePoint"/>
                        <mxPoint x="960" y="4450" as="targetPoint"/>
                    </mxGeometry>
                </mxCell>
                <mxCell id="101" value="Satanic Power" style="edgeLabel;html=1;align=center;verticalAlign=middle;resizable=0;points=[];" parent="99" vertex="1" connectable="0">
                    <mxGeometry x="-0.1507" y="-2" relative="1" as="geometry">
                        <mxPoint as="offset"/>
                    </mxGeometry>
                </mxCell>
                <mxCell id="100" value="" style="endArrow=classic;html=1;exitX=0.88;exitY=1.012;exitDx=0;exitDy=0;exitPerimeter=0;" parent="1" source="63" edge="1">
                    <mxGeometry width="50" height="50" relative="1" as="geometry">
                        <mxPoint x="1060" y="4240" as="sourcePoint"/>
                        <mxPoint x="1140" y="4450" as="targetPoint"/>
                    </mxGeometry>
                </mxCell>
                <mxCell id="102" value="Holy Power" style="edgeLabel;html=1;align=center;verticalAlign=middle;resizable=0;points=[];" parent="100" vertex="1" connectable="0">
                    <mxGeometry x="-0.1593" y="1" relative="1" as="geometry">
                        <mxPoint as="offset"/>
                    </mxGeometry>
                </mxCell>
                <mxCell id="103" value="Tip odds in favour of satan" style="rounded=0;whiteSpace=wrap;html=1;" parent="1" vertex="1">
                    <mxGeometry x="890" y="4450" width="120" height="60" as="geometry"/>
                </mxCell>
                <mxCell id="104" value="Tip odds in favour of God" style="rounded=0;whiteSpace=wrap;html=1;" parent="1" vertex="1">
                    <mxGeometry x="1090" y="4450" width="120" height="60" as="geometry"/>
                </mxCell>
                <mxCell id="105" value="" style="shape=flexArrow;endArrow=classic;html=1;exitX=0.577;exitY=-0.06;exitDx=0;exitDy=0;exitPerimeter=0;" parent="1" source="97" target="106" edge="1">
                    <mxGeometry width="50" height="50" relative="1" as="geometry">
                        <mxPoint x="2320" y="4120" as="sourcePoint"/>
                        <mxPoint x="2340" y="4020" as="targetPoint"/>
                    </mxGeometry>
                </mxCell>
                <mxCell id="106" value="&lt;div&gt;Ride The&lt;/div&gt;C0DA&lt;div&gt;Meteor&lt;/div&gt;" style="rounded=1;whiteSpace=wrap;html=1;" parent="1" vertex="1">
                    <mxGeometry x="2360" y="3960" width="120" height="60" as="geometry"/>
                </mxCell>
                <mxCell id="107" value="Walk Over Frozen Ocean" style="rounded=1;whiteSpace=wrap;html=1;" parent="1" vertex="1">
                    <mxGeometry x="2360" y="4210" width="120" height="60" as="geometry"/>
                </mxCell>
                <mxCell id="108" value="" style="shape=flexArrow;endArrow=classic;html=1;exitX=0.5;exitY=1;exitDx=0;exitDy=0;entryX=0;entryY=0.5;entryDx=0;entryDy=0;" parent="1" source="97" target="107" edge="1">
                    <mxGeometry width="50" height="50" relative="1" as="geometry">
                        <mxPoint x="2430" y="4120" as="sourcePoint"/>
                        <mxPoint x="2480" y="4070" as="targetPoint"/>
                    </mxGeometry>
                </mxCell>
                <mxCell id="109" value="You Are Gonna Die&lt;div&gt;Mountain&lt;/div&gt;" style="rounded=0;whiteSpace=wrap;html=1;" parent="1" vertex="1">
                    <mxGeometry x="2560" y="4080" width="120" height="60" as="geometry"/>
                </mxCell>
                <mxCell id="110" value="" style="shape=flexArrow;endArrow=classic;html=1;exitX=0.923;exitY=-0.027;exitDx=0;exitDy=0;exitPerimeter=0;entryX=0;entryY=1;entryDx=0;entryDy=0;" parent="1" source="107" target="109" edge="1">
                    <mxGeometry width="50" height="50" relative="1" as="geometry">
                        <mxPoint x="2430" y="4120" as="sourcePoint"/>
                        <mxPoint x="2480" y="4070" as="targetPoint"/>
                    </mxGeometry>
                </mxCell>
                <mxCell id="111" value="" style="shape=flexArrow;endArrow=classic;html=1;exitX=1;exitY=1;exitDx=0;exitDy=0;entryX=0;entryY=0;entryDx=0;entryDy=0;" parent="1" source="106" target="109" edge="1">
                    <mxGeometry width="50" height="50" relative="1" as="geometry">
                        <mxPoint x="2319" y="4106" as="sourcePoint"/>
                        <mxPoint x="2399" y="4030" as="targetPoint"/>
                    </mxGeometry>
                </mxCell>
                <mxCell id="112" value="" style="shape=flexArrow;endArrow=classic;html=1;exitX=1.023;exitY=0.62;exitDx=0;exitDy=0;exitPerimeter=0;" parent="1" source="109" target="113" edge="1">
                    <mxGeometry width="50" height="50" relative="1" as="geometry">
                        <mxPoint x="2740" y="4120" as="sourcePoint"/>
                        <mxPoint x="2800" y="4117" as="targetPoint"/>
                    </mxGeometry>
                </mxCell>
                <mxCell id="113" value="The Precipice" style="rounded=0;whiteSpace=wrap;html=1;" parent="1" vertex="1">
                    <mxGeometry x="2740" y="4087" width="120" height="60" as="geometry"/>
                </mxCell>
                <mxCell id="114" value="Final Boss&lt;div&gt;&lt;font color=&quot;#000000&quot;&gt;Philosopher God&lt;br&gt;&lt;/font&gt;&lt;div&gt;Chicken Egg&lt;/div&gt;&lt;/div&gt;" style="rounded=1;whiteSpace=wrap;html=1;" parent="1" vertex="1">
                    <mxGeometry x="2740" y="4140" width="120" height="60" as="geometry"/>
                </mxCell>
                <mxCell id="115" value="" style="shape=flexArrow;endArrow=classic;html=1;exitX=1;exitY=0.5;exitDx=0;exitDy=0;" parent="1" source="113" edge="1">
                    <mxGeometry width="50" height="50" relative="1" as="geometry">
                        <mxPoint x="2950" y="4120" as="sourcePoint"/>
                        <mxPoint x="2960" y="4117" as="targetPoint"/>
                    </mxGeometry>
                </mxCell>
                <mxCell id="116" value="Atoms&lt;div&gt;Same and Sun&lt;/div&gt;&lt;div&gt;And Moon&lt;/div&gt;&lt;div&gt;Speech&lt;/div&gt;" style="rounded=0;whiteSpace=wrap;html=1;" parent="1" vertex="1">
                    <mxGeometry x="2960" y="4077" width="120" height="80" as="geometry"/>
                </mxCell>
                <mxCell id="117" value="" style="shape=flexArrow;endArrow=classic;html=1;exitX=1;exitY=0.5;exitDx=0;exitDy=0;" parent="1" source="116" target="118" edge="1">
                    <mxGeometry width="50" height="50" relative="1" as="geometry">
                        <mxPoint x="3000" y="4120" as="sourcePoint"/>
                        <mxPoint x="3160" y="4117" as="targetPoint"/>
                    </mxGeometry>
                </mxCell>
                <mxCell id="118" value="The Adminstrative&lt;div&gt;Moons of Hell&lt;/div&gt;" style="rounded=1;whiteSpace=wrap;html=1;" parent="1" vertex="1">
                    <mxGeometry x="3140" y="4090" width="120" height="60" as="geometry"/>
                </mxCell>
                <mxCell id="119" value="" style="shape=flexArrow;endArrow=classic;html=1;exitX=1;exitY=0.5;exitDx=0;exitDy=0;" parent="1" source="118" edge="1">
                    <mxGeometry width="50" height="50" relative="1" as="geometry">
                        <mxPoint x="3200" y="4120" as="sourcePoint"/>
                        <mxPoint x="3320" y="4120" as="targetPoint"/>
                    </mxGeometry>
                </mxCell>
                <mxCell id="120" value="Rebirth" style="rounded=1;whiteSpace=wrap;html=1;" parent="1" vertex="1">
                    <mxGeometry x="3320" y="4080" width="140" height="80" as="geometry"/>
                </mxCell>
                <mxCell id="122" value="Fight Against Time" style="rounded=1;whiteSpace=wrap;html=1;" parent="1" vertex="1">
                    <mxGeometry x="1150" y="4157" width="120" height="60" as="geometry"/>
                </mxCell>
                <mxCell id="126" value="Drug Addled Skooma&lt;div&gt;Suckers&lt;/div&gt;" style="rounded=1;whiteSpace=wrap;html=1;" parent="1" vertex="1">
                    <mxGeometry x="2040" y="4157" width="140" height="60" as="geometry"/>
                </mxCell>
                <mxCell id="127" value="Blue mushrooms on&lt;div&gt;red background&lt;/div&gt;&lt;div&gt;&lt;br&gt;&lt;/div&gt;&lt;div&gt;Instead of a complex&lt;/div&gt;&lt;div&gt;item management system&lt;/div&gt;&lt;div&gt;&lt;br&gt;&lt;/div&gt;&lt;div&gt;healing items are found on the map&lt;/div&gt;&lt;div&gt;like mario.&lt;/div&gt;&lt;div&gt;&lt;br&gt;&lt;/div&gt;&lt;div&gt;Blue mushrooms increase health&lt;/div&gt;" style="rounded=1;whiteSpace=wrap;html=1;" parent="1" vertex="1">
                    <mxGeometry x="820" y="3310" width="120" height="220" as="geometry"/>
                </mxCell>
                <mxCell id="128" value="Sand storms in valley of death&lt;br&gt;Buried Satan and Lord.&lt;br&gt;They are 7x the scale of human&lt;br&gt;You can choose a side by walking up to their chest and&lt;br&gt;Slapping them, with challenge duel button" style="rounded=0;whiteSpace=wrap;html=1;" parent="1" vertex="1">
                    <mxGeometry x="740" y="3120" width="240" height="140" as="geometry"/>
                </mxCell>
                <mxCell id="129" value="With tile system curvature&lt;br&gt;of the spiral down from Parish works simply&lt;br&gt;By having tiles near the side on screen raised up a few pixels" style="rounded=0;whiteSpace=wrap;html=1;" parent="1" vertex="1">
                    <mxGeometry x="1020" y="3110" width="120" height="140" as="geometry"/>
                </mxCell>
                <mxCell id="130" value="Pessimist Precipice&lt;br&gt;Private Premisis&lt;div&gt;&lt;br&gt;&lt;/div&gt;&lt;div&gt;A spot where you can jump off.&amp;nbsp; If you are innertube orphan you will survive, cushioned by the blow.&amp;nbsp; If you are sword orphab you survive by having the point&amp;nbsp; stick in the groun and break your fall.&lt;br&gt;Umprella Orphan floats to a secret item.&lt;br&gt;Girl with pigtails pigtails spin and act as a helicopter&lt;br&gt;Skirt orphan balloons up and she floats.&lt;br&gt;All others die.&lt;/div&gt;" style="rounded=0;whiteSpace=wrap;html=1;" parent="1" vertex="1">
                    <mxGeometry x="1020" y="3260" width="190" height="260" as="geometry"/>
                </mxCell>
                <mxCell id="131" value="When you slap cat,&lt;br&gt;it rubs up against you&lt;br&gt;and you do petting.&lt;br&gt;Or it jumps away and hisses and says no petting.&lt;br&gt;Many options." style="rounded=0;whiteSpace=wrap;html=1;" parent="1" vertex="1">
                    <mxGeometry x="790" y="2980" width="120" height="110" as="geometry"/>
                </mxCell>
                <mxCell id="132" value="Rafa Bale the Trash Pale&lt;div&gt;is the games merchant&lt;/div&gt;" style="rounded=0;whiteSpace=wrap;html=1;" parent="1" vertex="1">
                    <mxGeometry x="960" y="2980" width="150" height="110" as="geometry"/>
                </mxCell>
                <mxCell id="133" value="He deals in worms, half-worms, quarter-worms, shellings and slugs in shellings and Frogs." style="rounded=0;whiteSpace=wrap;html=1;" parent="1" vertex="1">
                    <mxGeometry x="1140" y="2995" width="120" height="80" as="geometry"/>
                </mxCell>
                <mxCell id="134" value="It&#39;s a logical Triplet System. Where 960 quarter worms is equal to one Fully Grown Frog or 20 Shelling. Meaning 48 quarter worms are equal to 1 empty Shelling. Snail in its shelling is worth 2.5 Shellings or one tadpole. Of course if you let the tadpole maturate it turns into a Polywog, doubles its worth to 5 Shellings and the price quadruples for a full maturated Frog.&amp;nbsp;&lt;div&gt;&lt;font color=&quot;#000000&quot;&gt;&lt;br&gt;&lt;/font&gt;&lt;/div&gt;&lt;div&gt;&lt;font color=&quot;#000000&quot;&gt;So if you buy these 5 tadpoles from me and wait 30 days you will have 5 Frogs, Quadrupling your profits you see?&lt;/font&gt;&lt;/div&gt;&lt;div&gt;&lt;font color=&quot;#000000&quot;&gt;&lt;font color=&quot;#000000&quot;&gt;&lt;br&gt;&lt;/font&gt;&lt;/font&gt;&lt;/div&gt;&lt;div&gt;&lt;font color=&quot;#000000&quot;&gt;&lt;font color=&quot;#000000&quot;&gt;Of course if you wait too long the meat goes bad and they are worthless.&lt;/font&gt;&lt;/font&gt;&lt;/div&gt;&lt;div&gt;&lt;font color=&quot;#000000&quot;&gt;&lt;font color=&quot;#000000&quot;&gt;&lt;br&gt;&lt;/font&gt;&lt;/font&gt;&lt;/div&gt;&lt;div&gt;&lt;font color=&quot;#000000&quot;&gt;&lt;font color=&quot;#000000&quot;&gt;So what&#39;ll it be?&lt;br&gt;&lt;/font&gt;&lt;/font&gt;Rafa Bale the Trash Pale can&#39;t figure out why you can&#39;t do the math on this&lt;/div&gt;" style="rounded=0;whiteSpace=wrap;html=1;" parent="1" vertex="1">
                    <mxGeometry x="1280" y="2900" width="190" height="400" as="geometry"/>
                </mxCell>
                <mxCell id="135" value="Don&#39;t step on the Graves,&lt;br&gt;You&#39;ll Summon an Evil Spirit&lt;br&gt;&lt;br&gt;(aka random encounters)" style="rounded=0;whiteSpace=wrap;html=1;" parent="1" vertex="1">
                    <mxGeometry x="820" y="230" width="210" height="180" as="geometry"/>
                </mxCell>
                <mxCell id="136" value="6 Pak&lt;br&gt;You can Find 6pac 4 Sure&lt;br&gt;With a bunch of Jawas&lt;br&gt;At the top of the map.&lt;br&gt;He will train you&lt;br&gt;in Buffosity." style="rounded=0;whiteSpace=wrap;html=1;" parent="1" vertex="1">
                    <mxGeometry x="985" y="3840" width="120" height="150" as="geometry"/>
                </mxCell>
                <mxCell id="137" value="Sweet Baby Deezus&lt;br&gt;Swole as Though art&lt;br&gt;In Heaven&lt;br&gt;Thy Will Be Buns&lt;div&gt;Thy Thighs of Steel&lt;br&gt;No Homo&lt;/div&gt;" style="rounded=1;whiteSpace=wrap;html=1;" parent="1" vertex="1">
                    <mxGeometry x="1121" y="3790" width="120" height="100" as="geometry"/>
                </mxCell>
                <mxCell id="138" value="Simon&lt;br&gt;Son of Simon&lt;div&gt;A Rumplestiltskin&lt;br&gt;Character&lt;/div&gt;" style="rounded=0;whiteSpace=wrap;html=1;" parent="1" vertex="1">
                    <mxGeometry x="870" y="410" width="120" height="100" as="geometry"/>
                </mxCell>
                <mxCell id="139" value="We Live on a pebble&lt;br&gt;three skips from the sun" style="rounded=1;whiteSpace=wrap;html=1;" parent="1" vertex="1">
                    <mxGeometry x="800" y="30" width="190" height="100" as="geometry"/>
                </mxCell>
                <mxCell id="140" value="Visit Kremlin&lt;br&gt;Reference tetris&lt;br&gt;Fight tetroids" style="rounded=0;whiteSpace=wrap;html=1;" parent="1" vertex="1">
                    <mxGeometry x="1060" y="130" width="120" height="60" as="geometry"/>
                </mxCell>
                <mxCell id="141" value="Doctor will pay you for &quot;resurecting&quot;&lt;br&gt;bodies.&lt;br&gt;The ressurectionist.&lt;br&gt;You must avoide the watchful eye of the watchman from the qatch house" style="rounded=0;whiteSpace=wrap;html=1;" parent="1" vertex="1">
                    <mxGeometry x="1055" y="220" width="120" height="140" as="geometry"/>
                </mxCell>
                <mxCell id="142" value="Necropolis rail way&lt;div&gt;train transporting the&lt;br&gt;dead in the&lt;br&gt;wake of Msichief&lt;br&gt;&lt;/div&gt;" style="rounded=0;whiteSpace=wrap;html=1;" parent="1" vertex="1">
                    <mxGeometry x="780" y="150" width="120" height="60" as="geometry"/>
                </mxCell>
                <mxCell id="143" value="Moira, Abigail, Beth,&lt;br&gt;Bernice, Adiline or Adi&amp;nbsp;" style="rounded=0;whiteSpace=wrap;html=1;" parent="1" vertex="1">
                    <mxGeometry x="40" y="610" width="120" height="60" as="geometry"/>
                </mxCell>
                <mxCell id="144" value="The tide goes out when moon is full. You can collect resources like stranded fish" style="rounded=0;whiteSpace=wrap;html=1;" parent="1" vertex="1">
                    <mxGeometry x="220" y="590" width="160" height="100" as="geometry"/>
                </mxCell>
                <mxCell id="146" value="Tides change with the monthly moon. Allowing you to explore and find passage to new areas when the tide recedes." style="rounded=0;whiteSpace=wrap;html=1;" vertex="1" parent="1">
                    <mxGeometry x="630" y="4500" width="180" height="140" as="geometry"/>
                </mxCell>
                <mxCell id="147" value="Grandfather clock on pause screene" style="rounded=0;whiteSpace=wrap;html=1;" vertex="1" parent="1">
                    <mxGeometry x="490" y="4640" width="120" height="60" as="geometry"/>
                </mxCell>
                <mxCell id="149" value="" style="shape=hexagon;perimeter=hexagonPerimeter2;whiteSpace=wrap;html=1;fixedSize=1;" vertex="1" parent="1">
                    <mxGeometry x="660" y="4680" width="120" height="80" as="geometry"/>
                </mxCell>
                <mxCell id="150" value="" style="ellipse;whiteSpace=wrap;html=1;aspect=fixed;" vertex="1" parent="1">
                    <mxGeometry x="680" y="4676" width="80" height="80" as="geometry"/>
                </mxCell>
                <mxCell id="151" value="Chim-Chiminy!&lt;br&gt;&lt;br&gt;Rotate isometric Chimney&lt;br&gt;While climbing and rubbing&lt;br&gt;smoke sludge.&lt;br&gt;If you miss a spot and take a step you slip.&lt;br&gt;&lt;br&gt;There is a time limit of the fire underneath you which the&lt;div&gt;stoker is stoking to motivate you.&lt;br&gt;Also if you get caught in smoke&lt;br&gt;you will become dazed and could fall alseep.&lt;br&gt;Dont Worry Though the fire beneath you&lt;br&gt;&lt;/div&gt;&lt;div&gt;will sureley wake you up.&lt;br&gt;Push your mop through the sludge above to make a hole for the smoke to pass.&lt;br&gt;If you are fast enough you may be able to&lt;br&gt;escape to freedom from the clutches of your&lt;br&gt;chimney sweep master.&lt;/div&gt;" style="whiteSpace=wrap;html=1;aspect=fixed;" vertex="1" parent="1">
                    <mxGeometry x="827" y="4690" width="310" height="310" as="geometry"/>
                </mxCell>
                <mxCell id="152" value="" style="rounded=0;whiteSpace=wrap;html=1;" vertex="1" parent="1">
                    <mxGeometry x="680" y="4760" width="80" height="190" as="geometry"/>
                </mxCell>
                <mxCell id="153" value="" style="rounded=0;whiteSpace=wrap;html=1;" vertex="1" parent="1">
                    <mxGeometry x="660" y="4950" width="120" height="60" as="geometry"/>
                </mxCell>
            </root>
        </mxGraphModel>
    </diagram>
</mxfile>